<svg width="24" height="24" viewBox="0 0 24 24" fill="none" xmlns="http://www.w3.org/2000/svg">
<path fill-rule="evenodd" clip-rule="evenodd" d="M23.9987 11.9995C23.9987 11.7972 23.999 11.5952 23.9992 11.3933C24.0008 9.9413 24.0024 8.49836 23.9207 7.04616C23.8276 5.12487 23.3893 3.41971 21.9844 2.01477C20.5764 0.606814 18.8743 0.17152 16.953 0.0784573C15.4981 -0.00324908 14.0547 -0.00164938 12.6047 -4.22438e-05C12.4032 0.000181134 12.2015 0.000404655 11.9996 0.000404655C11.7974 0.000404655 11.5953 0.000181035 11.3935 -4.23916e-05C9.94147 -0.00164948 8.49851 -0.00324657 7.04629 0.0784573C5.12499 0.17152 3.41984 0.609816 2.01489 2.01477C0.606936 3.42272 0.171642 5.12487 0.0785794 7.04616C-0.00312701 8.50107 -0.00152731 9.9444 7.98265e-05 11.3944C0.000303204 11.596 0.000526725 11.7977 0.000526725 11.9995C0.000526725 12.2013 0.000303267 12.403 7.99206e-05 12.6046C-0.00152725 14.0552 -0.0031286 15.5006 0.0785794 16.9529C0.171642 18.8742 0.609938 20.5793 2.01489 21.9843C3.42284 23.3922 5.12499 23.8275 7.04629 23.9206C8.5012 24.0023 9.94454 24.0007 11.3946 23.9991C11.5961 23.9988 11.7978 23.9986 11.9996 23.9986C12.2019 23.9986 12.4039 23.9988 12.6058 23.9991C14.0578 24.0007 15.5007 24.0023 16.953 23.9206C18.8743 23.8275 20.5794 23.3892 21.9844 21.9843C23.3923 20.5763 23.8276 18.8742 23.9207 16.9529C24.0036 15.5245 24.0015 14.1052 23.9994 12.6774C23.9991 12.4516 23.9987 12.2257 23.9987 11.9995ZM16.9759 16.0012C14.7724 16.0012 12.9742 14.203 12.9742 11.9995C12.9742 9.79602 14.7724 7.99781 16.9759 7.99781C19.1794 7.99781 20.9776 9.79602 20.9776 11.9995C20.9776 14.203 19.1794 16.0012 16.9759 16.0012ZM3.1243 11.9995C3.1243 9.79602 4.92251 7.9978 7.126 7.9978C9.32949 7.9978 11.1277 9.79602 11.1277 11.9995C11.1277 14.203 9.32949 16.0012 7.126 16.0012C4.92251 16.0012 3.1243 14.203 3.1243 11.9995Z" fill="#4DA8FF"/>
</svg>
