<svg width="21" height="21" viewBox="0 0 21 21" fill="none" xmlns="http://www.w3.org/2000/svg">
<path d="M10.4906 8.77646e-07C4.69453 -0.00234287 0 4.68985 0 10.4813C0 15.0609 2.93672 18.9539 7.02656 20.3836C7.57734 20.5219 7.49297 20.1305 7.49297 19.8633V18.0469C4.3125 18.4195 4.18359 16.3148 3.97031 15.9633C3.53906 15.2273 2.51953 15.0398 2.82422 14.6883C3.54844 14.3156 4.28672 14.782 5.14219 16.0453C5.76094 16.9617 6.96797 16.807 7.57969 16.6547C7.71328 16.1039 7.99922 15.6117 8.39297 15.2297C5.09766 14.6391 3.72422 12.6281 3.72422 10.2375C3.72422 9.07734 4.10625 8.01094 4.85625 7.15078C4.37812 5.73281 4.90078 4.51875 4.97109 4.33828C6.33281 4.21641 7.74844 5.31328 7.85859 5.4C8.63203 5.19141 9.51562 5.08125 10.5047 5.08125C11.4984 5.08125 12.3844 5.19609 13.1648 5.40703C13.4297 5.20547 14.7422 4.26328 16.0078 4.37813C16.0758 4.55859 16.5867 5.74453 16.1367 7.14375C16.8961 8.00625 17.2828 9.08203 17.2828 10.2445C17.2828 12.6398 15.9 14.6531 12.5953 15.2344C12.8784 15.5127 13.1031 15.8447 13.2564 16.2109C13.4098 16.5771 13.4886 16.9702 13.4883 17.3672V20.0039C13.507 20.2148 13.4883 20.4234 13.8398 20.4234C17.9906 19.0242 20.9789 15.1031 20.9789 10.4836C20.9789 4.68984 16.282 8.77646e-07 10.4906 8.77646e-07V8.77646e-07Z" fill="white"/>
</svg>
