<svg xmlns="http://www.w3.org/2000/svg" width="72" height="220" shape-rendering="geometricPrecision" text-rendering="geometricPrecision" image-rendering="optimizeQuality" viewBox="0 0 72 220"><path d="M64.6 103.7c4.8 0.2 7.2 2.2 7.2 6.2 0 3.8-2.4 6-7.2 6.5-6.6 0.3-11.3 2.1-13.9 5.2-2.5 3-3.7 8-3.7 14.9l-0.5 60.4c0 7.5-1.9 13.2-5.7 17.2-3.8 4-9.4 6-16.9 6l-16.4 0c-2.3 0-4.1-0.6-5.5-1.7-1.2-1-1.7-2.4-1.7-4.2 0-2 0.7-3.6 2-4.7 1.3-1.2 3.1-1.7 5.2-1.7l13.2 0c7.3 0 10.9-3.8 10.9-11.4l0-61.1c0-7.1 1.7-12.8 5-16.9 3.5-4.3 7.6-7 12.4-8.2-4.8-1.2-8.9-3.8-12.4-7.9-3.3-4.3-5-10-5-17.1l0-60.9c0-7.6-3.6-11.4-10.9-11.4l-13.2 0c-2.1 0-3.9-0.6-5.2-1.7-1.3-1.2-2-2.7-2-4.7 0-1.8 0.6-3.2 1.7-4.2 1.3-1.2 3.2-1.7 5.5-1.7l16.4 0c7.5 0 13.1 2 16.9 6 3.8 4 5.7 9.7 5.7 17.2l0 60.2c0 6.8 1.3 11.8 4 14.9 2.7 3.2 7.4 5 14.2 5.5z" fill="#DBEAF7"/></svg>
